<svg width="567" height="210" viewBox="0 0 567 210" fill="none" xmlns="http://www.w3.org/2000/svg">
<g filter="url(#filter0_d_1_3)">
<mask id="path-1-outside-1_1_3" maskUnits="userSpaceOnUse" x="3" y="-1" width="561" height="204" fill="black">
<rect fill="white" x="3" y="-1" width="561" height="204"/>
<path d="M4.69034 3.36363H32.9659L99.4517 165.757H101.744L168.23 3.36363H196.506V199H174.344V50.3622H172.433L111.297 199H89.8992L28.7628 50.3622H26.8523V199H4.69034V3.36363ZM244.006 199V3.36363H362.075V24.3793H267.696V90.483H355.962V111.499H267.696V177.984H363.604V199H244.006ZM562.201 64.5H538.511C537.11 57.6858 534.658 51.6996 531.156 46.5412C527.717 41.3828 523.514 37.0523 518.546 33.5497C513.643 29.9834 508.198 27.3087 502.211 25.5256C496.225 23.7424 489.984 22.8508 483.488 22.8508C471.643 22.8508 460.912 25.844 451.296 31.8303C441.744 37.8165 434.133 46.6367 428.466 58.2908C422.861 69.945 420.059 84.2419 420.059 101.182C420.059 118.122 422.861 132.419 428.466 144.073C434.133 155.727 441.744 164.547 451.296 170.533C460.912 176.52 471.643 179.513 483.488 179.513C489.984 179.513 496.225 178.621 502.211 176.838C508.198 175.055 513.643 172.412 518.546 168.909C523.514 165.343 527.717 160.981 531.156 155.822C534.658 150.6 537.11 144.614 538.511 137.864H562.201C560.418 147.862 557.17 156.81 552.458 164.706C547.745 172.603 541.886 179.322 534.881 184.862C527.876 190.339 520.011 194.51 511.286 197.376C502.625 200.242 493.359 201.675 483.488 201.675C466.803 201.675 451.965 197.599 438.973 189.447C425.982 181.296 415.761 169.705 408.31 154.676C400.859 139.647 397.133 121.815 397.133 101.182C397.133 80.5483 400.859 62.7169 408.31 47.6875C415.761 32.6581 425.982 21.0677 438.973 12.9162C451.965 4.76467 466.803 0.688913 483.488 0.688913C493.359 0.688913 502.625 2.1218 511.286 4.98757C520.011 7.85334 527.876 12.0565 534.881 17.5969C541.886 23.0737 547.745 29.7605 552.458 37.6573C557.17 45.4904 560.418 54.438 562.201 64.5Z"/>
</mask>
<path d="M4.69034 3.36363H32.9659L99.4517 165.757H101.744L168.23 3.36363H196.506V199H174.344V50.3622H172.433L111.297 199H89.8992L28.7628 50.3622H26.8523V199H4.69034V3.36363ZM244.006 199V3.36363H362.075V24.3793H267.696V90.483H355.962V111.499H267.696V177.984H363.604V199H244.006ZM562.201 64.5H538.511C537.11 57.6858 534.658 51.6996 531.156 46.5412C527.717 41.3828 523.514 37.0523 518.546 33.5497C513.643 29.9834 508.198 27.3087 502.211 25.5256C496.225 23.7424 489.984 22.8508 483.488 22.8508C471.643 22.8508 460.912 25.844 451.296 31.8303C441.744 37.8165 434.133 46.6367 428.466 58.2908C422.861 69.945 420.059 84.2419 420.059 101.182C420.059 118.122 422.861 132.419 428.466 144.073C434.133 155.727 441.744 164.547 451.296 170.533C460.912 176.52 471.643 179.513 483.488 179.513C489.984 179.513 496.225 178.621 502.211 176.838C508.198 175.055 513.643 172.412 518.546 168.909C523.514 165.343 527.717 160.981 531.156 155.822C534.658 150.6 537.11 144.614 538.511 137.864H562.201C560.418 147.862 557.17 156.81 552.458 164.706C547.745 172.603 541.886 179.322 534.881 184.862C527.876 190.339 520.011 194.51 511.286 197.376C502.625 200.242 493.359 201.675 483.488 201.675C466.803 201.675 451.965 197.599 438.973 189.447C425.982 181.296 415.761 169.705 408.31 154.676C400.859 139.647 397.133 121.815 397.133 101.182C397.133 80.5483 400.859 62.7169 408.31 47.6875C415.761 32.6581 425.982 21.0677 438.973 12.9162C451.965 4.76467 466.803 0.688913 483.488 0.688913C493.359 0.688913 502.625 2.1218 511.286 4.98757C520.011 7.85334 527.876 12.0565 534.881 17.5969C541.886 23.0737 547.745 29.7605 552.458 37.6573C557.17 45.4904 560.418 54.438 562.201 64.5Z" fill="#283DAA" shape-rendering="crispEdges"/>
<path d="M4.69034 3.36363V2.36363H3.69034V3.36363H4.69034ZM32.9659 3.36363L33.8914 2.98474L33.6371 2.36363H32.9659V3.36363ZM99.4517 165.757L98.5263 166.136L98.7806 166.757H99.4517V165.757ZM101.744 165.757V166.757H102.415L102.67 166.136L101.744 165.757ZM168.23 3.36363V2.36363H167.559L167.305 2.98474L168.23 3.36363ZM196.506 3.36363H197.506V2.36363H196.506V3.36363ZM196.506 199V200H197.506V199H196.506ZM174.344 199H173.344V200H174.344V199ZM174.344 50.3622H175.344V49.3622H174.344V50.3622ZM172.433 50.3622V49.3622H171.763L171.508 49.9818L172.433 50.3622ZM111.297 199V200H111.967L112.222 199.38L111.297 199ZM89.8992 199L88.9743 199.38L89.2292 200H89.8992V199ZM28.7628 50.3622L29.6876 49.9818L29.4328 49.3622H28.7628V50.3622ZM26.8523 50.3622V49.3622H25.8523V50.3622H26.8523ZM26.8523 199V200H27.8523V199H26.8523ZM4.69034 199H3.69034V200H4.69034V199ZM4.69034 4.36363H32.9659V2.36363H4.69034V4.36363ZM32.0405 3.74252L98.5263 166.136L100.377 165.378L33.8914 2.98474L32.0405 3.74252ZM99.4517 166.757H101.744V164.757H99.4517V166.757ZM102.67 166.136L169.156 3.74252L167.305 2.98474L100.819 165.378L102.67 166.136ZM168.23 4.36363H196.506V2.36363H168.23V4.36363ZM195.506 3.36363V199H197.506V3.36363H195.506ZM196.506 198H174.344V200H196.506V198ZM175.344 199V50.3622H173.344V199H175.344ZM174.344 49.3622H172.433V51.3622H174.344V49.3622ZM171.508 49.9818L110.372 198.62L112.222 199.38L173.358 50.7426L171.508 49.9818ZM111.297 198H89.8992V200H111.297V198ZM90.824 198.62L29.6876 49.9818L27.838 50.7426L88.9743 199.38L90.824 198.62ZM28.7628 49.3622H26.8523V51.3622H28.7628V49.3622ZM25.8523 50.3622V199H27.8523V50.3622H25.8523ZM26.8523 198H4.69034V200H26.8523V198ZM5.69034 199V3.36363H3.69034V199H5.69034ZM244.006 199H243.006V200H244.006V199ZM244.006 3.36363V2.36363H243.006V3.36363H244.006ZM362.075 3.36363H363.075V2.36363H362.075V3.36363ZM362.075 24.3793V25.3793H363.075V24.3793H362.075ZM267.696 24.3793V23.3793H266.696V24.3793H267.696ZM267.696 90.483H266.696V91.483H267.696V90.483ZM355.962 90.483H356.962V89.483H355.962V90.483ZM355.962 111.499V112.499H356.962V111.499H355.962ZM267.696 111.499V110.499H266.696V111.499H267.696ZM267.696 177.984H266.696V178.984H267.696V177.984ZM363.604 177.984H364.604V176.984H363.604V177.984ZM363.604 199V200H364.604V199H363.604ZM245.006 199V3.36363H243.006V199H245.006ZM244.006 4.36363H362.075V2.36363H244.006V4.36363ZM361.075 3.36363V24.3793H363.075V3.36363H361.075ZM362.075 23.3793H267.696V25.3793H362.075V23.3793ZM266.696 24.3793V90.483H268.696V24.3793H266.696ZM267.696 91.483H355.962V89.483H267.696V91.483ZM354.962 90.483V111.499H356.962V90.483H354.962ZM355.962 110.499H267.696V112.499H355.962V110.499ZM266.696 111.499V177.984H268.696V111.499H266.696ZM267.696 178.984H363.604V176.984H267.696V178.984ZM362.604 177.984V199H364.604V177.984H362.604ZM363.604 198H244.006V200H363.604V198ZM562.201 64.5V65.5H563.394L563.186 64.3255L562.201 64.5ZM538.511 64.5L537.532 64.7014L537.696 65.5H538.511V64.5ZM531.156 46.5412L530.324 47.0959L530.328 47.1029L531.156 46.5412ZM518.546 33.5497L517.958 34.3585L517.964 34.3628L517.97 34.367L518.546 33.5497ZM502.211 25.5256L501.926 26.484L501.926 26.484L502.211 25.5256ZM451.296 31.8303L450.768 30.9813L450.765 30.9829L451.296 31.8303ZM428.466 58.2908L427.566 57.8535L427.564 57.8575L428.466 58.2908ZM428.466 144.073L427.564 144.506L427.566 144.51L428.466 144.073ZM451.296 170.533L450.765 171.381L450.768 171.382L451.296 170.533ZM502.211 176.838L501.926 175.88L501.926 175.88L502.211 176.838ZM518.546 168.909L519.128 169.723L519.129 169.722L518.546 168.909ZM531.156 155.822L530.325 155.265L530.324 155.268L531.156 155.822ZM538.511 137.864V136.864H537.697L537.532 137.66L538.511 137.864ZM562.201 137.864L563.186 138.039L563.396 136.864H562.201V137.864ZM552.458 164.706L551.599 164.194L551.599 164.194L552.458 164.706ZM534.881 184.862L535.497 185.65L535.501 185.647L534.881 184.862ZM511.286 197.376L510.974 196.426L510.972 196.427L511.286 197.376ZM438.973 189.447L438.442 190.295L438.442 190.295L438.973 189.447ZM408.31 154.676L409.206 154.232L409.206 154.232L408.31 154.676ZM408.31 47.6875L407.414 47.2433L408.31 47.6875ZM511.286 4.98757L510.972 5.93695L510.974 5.93763L511.286 4.98757ZM534.881 17.5969L534.261 18.3813L534.265 18.3847L534.881 17.5969ZM552.458 37.6573L551.599 38.1698L551.601 38.1728L552.458 37.6573ZM562.201 63.5H538.511V65.5H562.201V63.5ZM539.491 64.2986C538.066 57.3704 535.568 51.2587 531.983 45.9794L530.328 47.1029C533.749 52.1405 536.154 58.0013 537.532 64.7014L539.491 64.2986ZM531.988 45.9865C528.482 40.7277 524.193 36.3075 519.123 32.7325L517.97 34.367C522.835 37.7971 526.952 42.038 530.324 47.0959L531.988 45.9865ZM519.134 32.741C514.136 29.106 508.588 26.3817 502.497 24.5672L501.926 26.484C507.807 28.2357 513.149 30.8609 517.958 34.3585L519.134 32.741ZM502.497 24.5672C496.414 22.7554 490.077 21.8508 483.488 21.8508V23.8508C489.891 23.8508 496.036 24.7295 501.926 26.484L502.497 24.5672ZM483.488 21.8508C471.465 21.8508 460.55 24.8917 450.768 30.9813L451.825 32.6792C461.275 26.7963 471.821 23.8508 483.488 23.8508V21.8508ZM450.765 30.9829C441.031 37.0828 433.304 46.0566 427.566 57.8535L429.365 58.7282C434.963 47.2168 442.456 38.5502 451.827 32.6776L450.765 30.9829ZM427.564 57.8575C421.878 69.682 419.059 84.1365 419.059 101.182H421.059C421.059 84.3474 423.845 70.208 429.367 58.7242L427.564 57.8575ZM419.059 101.182C419.059 118.227 421.878 132.682 427.564 144.506L429.367 143.639C423.845 132.156 421.059 118.016 421.059 101.182H419.059ZM427.566 144.51C433.304 156.307 441.031 165.281 450.765 171.381L451.827 169.686C442.456 163.813 434.963 155.147 429.365 143.635L427.566 144.51ZM450.768 171.382C460.55 177.472 471.465 180.513 483.488 180.513V178.513C471.821 178.513 461.275 175.567 451.825 169.684L450.768 171.382ZM483.488 180.513C490.077 180.513 496.414 179.608 502.497 177.796L501.926 175.88C496.036 177.634 489.891 178.513 483.488 178.513V180.513ZM502.497 177.796C508.585 175.983 514.131 173.292 519.128 169.723L517.965 168.096C513.155 171.532 507.81 174.127 501.926 175.88L502.497 177.796ZM519.129 169.722C524.196 166.084 528.483 161.634 531.988 156.377L530.324 155.268C526.95 160.327 522.831 164.602 517.963 168.097L519.129 169.722ZM531.986 156.379C535.567 151.04 538.065 144.932 539.49 138.067L537.532 137.66C536.155 144.297 533.749 150.16 530.325 155.265L531.986 156.379ZM538.511 138.864H562.201V136.864H538.511V138.864ZM561.217 137.688C559.453 147.58 556.244 156.411 551.599 164.194L553.317 165.219C558.097 157.208 561.384 148.144 563.186 138.039L561.217 137.688ZM551.599 164.194C546.947 171.989 541.168 178.615 534.261 184.078L535.501 185.647C542.605 180.028 548.544 173.217 553.317 165.219L551.599 164.194ZM534.265 184.074C527.354 189.478 519.593 193.595 510.974 196.426L511.598 198.326C520.429 195.425 528.398 191.2 535.497 185.65L534.265 184.074ZM510.972 196.427C502.421 199.256 493.261 200.675 483.488 200.675V202.675C493.457 202.675 502.83 201.227 511.6 198.325L510.972 196.427ZM483.488 200.675C466.974 200.675 452.323 196.643 439.505 188.6L438.442 190.295C451.607 198.555 466.632 202.675 483.488 202.675V200.675ZM439.505 188.6C426.684 180.556 416.583 169.112 409.206 154.232L407.414 155.12C414.939 170.299 425.28 182.036 438.442 190.295L439.505 188.6ZM409.206 154.232C401.837 139.369 398.133 121.696 398.133 101.182H396.133C396.133 121.935 399.88 139.925 407.414 155.12L409.206 154.232ZM398.133 101.182C398.133 80.6676 401.837 62.9949 409.206 48.1317L407.414 47.2433C399.88 62.4389 396.133 80.429 396.133 101.182H398.133ZM409.206 48.1317C416.583 33.2516 426.684 21.8076 439.505 13.7633L438.442 12.0691C425.28 20.3278 414.939 32.0647 407.414 47.2433L409.206 48.1317ZM439.505 13.7633C452.323 5.72041 466.974 1.68891 483.488 1.68891V-0.311087C466.632 -0.311087 451.607 3.80893 438.442 12.0691L439.505 13.7633ZM483.488 1.68891C493.261 1.68891 502.421 3.10735 510.972 5.93695L511.6 4.03819C502.83 1.13625 493.457 -0.311087 483.488 -0.311087V1.68891ZM510.974 5.93763C519.59 8.76776 527.35 12.9158 534.261 18.3813L535.501 16.8126C528.401 11.1971 520.432 6.93891 511.598 4.03751L510.974 5.93763ZM534.265 18.3847C541.17 23.7829 546.948 30.3753 551.599 38.1698L553.317 37.1449C548.543 29.1458 542.603 22.3645 535.497 16.8091L534.265 18.3847ZM551.601 38.1728C556.243 45.8894 559.453 54.7189 561.217 64.6745L563.186 64.3255C561.384 54.1571 558.097 45.0914 553.315 37.1418L551.601 38.1728Z" fill="black" fill-opacity="0.5" mask="url(#path-1-outside-1_1_3)"/>
</g>
<defs>
<filter id="filter0_d_1_3" x="0.690369" y="0.688904" width="565.511" height="208.986" filterUnits="userSpaceOnUse" color-interpolation-filters="sRGB">
<feFlood flood-opacity="0" result="BackgroundImageFix"/>
<feColorMatrix in="SourceAlpha" type="matrix" values="0 0 0 0 0 0 0 0 0 0 0 0 0 0 0 0 0 0 127 0" result="hardAlpha"/>
<feOffset dy="4"/>
<feGaussianBlur stdDeviation="2"/>
<feComposite in2="hardAlpha" operator="out"/>
<feColorMatrix type="matrix" values="0 0 0 0 0 0 0 0 0 0 0 0 0 0 0 0 0 0 0.25 0"/>
<feBlend mode="normal" in2="BackgroundImageFix" result="effect1_dropShadow_1_3"/>
<feBlend mode="normal" in="SourceGraphic" in2="effect1_dropShadow_1_3" result="shape"/>
</filter>
</defs>
</svg>
